<svg xmlns="http://www.w3.org/2000/svg" width="27" height="27" viewBox="0 0 27 27">
    <g fill="none" fill-rule="evenodd">
        <g fill="#0C9">
            <g>
                <g>
                    <path d="M10.596 14.107c1.527 0 2.852.966 3.343 2.347l.055.168.045.168h8.518c.399 0 .733.276.82.646l.017.095.006.098c0 .43-.326.783-.745.832l-.098.005h-8.518l-.045.17c-.406 1.356-1.605 2.35-3.035 2.496l-.18.013-.183.005h-.085c-1.526 0-2.851-.966-3.342-2.347l-.055-.168-.046-.17-2.625.001c-.399 0-.733-.275-.82-.645l-.017-.095-.006-.097c0-.43.326-.784.745-.833l.098-.005 2.625-.001.046-.168c.406-1.357 1.604-2.352 3.035-2.497l.18-.013.182-.005h.085zm-.016 1.676h-.053c-1.026 0-1.857.826-1.857 1.846 0 .926.688 1.699 1.586 1.826l.136.015.135.004h.053c1.027 0 1.858-.826 1.858-1.845 0-1.02-.831-1.846-1.858-1.846zM16.49 5.85c1.526 0 2.851.966 3.342 2.347l.055.168.045.168h2.626c.399 0 .733.276.82.646l.017.095.006.097c0 .43-.326.784-.745.833l-.098.005H19.93l-.045.17c-.406 1.356-1.604 2.35-3.035 2.496l-.18.013-.182.005h-.085c-1.527 0-2.852-.966-3.343-2.347l-.055-.168-.046-.169H4.443c-.399 0-.733-.275-.82-.645l-.017-.095-.006-.098c0-.43.326-.783.745-.832l.098-.005h8.517l.046-.17c.406-1.356 1.605-2.35 3.035-2.496l.18-.013.183-.005h.085zm-.016 1.676h-.053c-1.027 0-1.858.826-1.858 1.845 0 .926.688 1.7 1.586 1.827l.137.015.135.004h.053c1.026 0 1.857-.826 1.857-1.846 0-1.019-.831-1.845-1.857-1.845z" transform="translate(-55 -321) translate(55 316) translate(0 5)"/>
                </g>
            </g>
        </g>
    </g>
</svg>
